Coordinates
version=1
nRows=8
nColumns=40
inDegrees=yes

Units are S.I. units (second, meters, Newtons, ...)
If the header above contains a line with 'inDegrees', this indicates whether rotational values are in degrees (yes) or radians (no).

endheader
time	pelvis_tilt	pelvis_list	pelvis_rotation	pelvis_tx	pelvis_ty	pelvis_tz	hip_flexion_r	hip_adduction_r	hip_rotation_r	knee_angle_r	knee_angle_r_beta	ankle_angle_r	subtalar_angle_r	mtp_angle_r	hip_flexion_l	hip_adduction_l	hip_rotation_l	knee_angle_l	knee_angle_l_beta	ankle_angle_l	subtalar_angle_l	mtp_angle_l	lumbar_extension	lumbar_bending	lumbar_rotation	arm_flex_r	arm_add_r	arm_rot_r	elbow_flex_r	pro_sup_r	wrist_flex_r	wrist_dev_r	arm_flex_l	arm_add_l	arm_rot_l	elbow_flex_l	pro_sup_l	wrist_flex_l	wrist_dev_l
      0.32500000	      0.73662242	     -6.88206460	      1.56487208	     -0.15106017	      0.93924035	      0.24843864	      1.00582548	      8.44981504	    -15.84876928	      7.32667098	      0.12787453	     -0.98353358	     -1.44383142	      0.00000000	     19.41884079	    -21.98831149	    -11.65036216	     72.34208816	      1.26260763	     -6.56643907	    -10.12808573	      0.00000000	     -0.88815274	      8.79394850	     -4.26370613	     28.12576214	    -12.29167223	     28.12576214	     79.40635779	     44.36696472	      0.00000000	      0.00000000	     28.12576214	    -12.29167223	     28.12576214	     79.40635779	     44.36696472	      0.00000000	      0.00000000
      0.33000000	      0.86079993	     -6.62763787	      1.36746244	     -0.14474917	      0.94011181	      0.24873297	      0.24355682	      8.18378747	    -16.02084335	      7.03738826	      0.12282560	     -0.74892194	     -0.56242344	      0.00000000	     19.84180892	    -21.63234315	    -11.94006379	     71.73508775	      1.25201347	     -5.70695819	     -9.40669278	      0.00000000	     -1.09931748	      8.46678877	     -4.04912818	     28.15573088	    -12.29950010	     28.15573088	     79.38136340	     44.37685726	      0.00000000	      0.00000000	     28.15573088	    -12.29950010	     28.15573088	     79.38136340	     44.37685726	      0.00000000	      0.00000000
      0.33500000	      0.99235378	     -6.23571583	      1.10322130	     -0.13845005	      0.94099048	      0.24916298	     -0.45708481	      7.73989825	    -16.20430340	      6.89590232	      0.12035620	     -0.44853551	      0.34072388	      0.00000000	     20.14949876	    -21.13044351	    -12.39460852	     70.98393497	      1.23890338	     -4.95960091	     -8.88695767	      0.00000000	     -1.32507800	      7.96634203	     -3.73972501	     28.19551948	    -12.30988093	     28.19551948	     79.34831925	     44.38979362	      0.00000000	      0.00000000	     28.19551948	    -12.30988093	     28.19551948	     79.34831925	     44.38979362	      0.00000000	      0.00000000
      0.34000000	      0.97046250	     -5.98844699	      0.90686941	     -0.13227534	      0.94136277	      0.24937340	     -0.99294325	      7.46392120	    -16.22745779	      6.70609824	      0.11704349	     -0.23989587	      0.94283549	      0.00000000	     20.75196960	    -20.75399117	    -12.68309018	     70.32519106	      1.22740613	     -4.26237627	     -8.52958304	      0.00000000	     -1.32740942	      7.65324644	     -3.54816117	     28.21349747	    -12.31456585	     28.21349747	     79.33345240	     44.39555056	      0.00000000	      0.00000000	     28.21349747	    -12.31456585	     28.21349747	     79.33345240	     44.39555056	      0.00000000	      0.00000000
      0.34500000	      0.91343098	     -5.97836381	      0.74374180	     -0.12616961	      0.94157693	      0.24948783	     -1.39833330	      7.44666414	    -16.36505353	      6.65648828	      0.11617764	     -0.14926075	      1.06278960	      0.00000000	     21.48337235	    -20.68264646	    -12.94337890	     69.65929089	      1.21578398	     -4.00666732	     -8.40658339	      0.00000000	     -1.33026927	      7.63239818	     -3.53774092	     28.21675631	    -12.31541460	     28.21675631	     79.33076235	     44.39658842	      0.00000000	      0.00000000	     28.21675631	    -12.31541460	     28.21675631	     79.33076235	     44.39658842	      0.00000000	      0.00000000
      0.35000000	      1.40193515	     -5.10367209	      0.33681612	     -0.11982202	      0.94324510	      0.25026101	     -2.43957245	      6.41108496	    -16.53764609	      6.65035213	      0.11607054	      0.37782130	      2.62319085	      0.00000000	     20.96222924	    -19.67631885	    -13.82482968	     68.32251654	      1.19245287	     -3.02363354	     -7.25840253	      0.00000000	     -2.05767069	      6.52482897	     -2.95830657	     28.27067149	    -12.32944733	     28.27067149	     79.28637765	     44.41357537	      0.00000000	      0.00000000	     28.27067149	    -12.32944733	     28.27067149	     79.28637765	     44.41357537	      0.00000000	      0.00000000
      0.35500000	      1.68070591	     -4.20597767	     -0.10636896	     -0.11369470	      0.94432886	      0.25109609	     -3.08038281	      5.31932419	    -16.69046345	      6.95349831	      0.12136144	      1.08625111	      3.62182867	      0.00000000	     20.76497498	    -18.59319900	    -14.68619550	     66.98419713	      1.16909479	     -2.70519642	     -7.20743622	      0.00000000	     -2.49120343	      5.53387135	     -2.06789119	     28.38156378	    -12.35822561	     28.38156378	     79.19605621	     44.44720610	      0.00000000	      0.00000000	     28.38156378	    -12.35822561	     28.38156378	     79.19605621	     44.44720610	      0.00000000	      0.00000000
      0.36000000	      1.57279206	     -4.24527852	     -0.21415025	     -0.10763356	      0.94418005	      0.25102746	     -3.41313720	      5.34181387	    -16.74432365	      6.91134748	      0.12062577	      1.17857764	      3.72509196	      0.00000000	     21.50619830	    -18.53939197	    -14.88682821	     66.15511919	      1.15462465	     -2.42470547	     -7.03945347	      0.00000000	     -2.38503555	      5.57726058	     -2.09538509	     28.38580721	    -12.35932419	     28.38580721	     79.19262950	     44.44845497	      0.00000000	      0.00000000	     28.38580721	    -12.35932419	     28.38580721	     79.19262950	     44.44845497	      0.00000000	      0.00000000
